<svg xmlns="http://www.w3.org/2000/svg" viewBox="0 0 820 390" role="img" aria-labelledby="title desc"><title id="title">Input/output activation similarity across all 32 blocks</title><desc id="desc">Mean image-token cosine across 64 prompts, at early, middle and final denoising stages. Blocks 2 through 5 are highlighted as the tested batch, not an exclusive ranking.</desc><rect width="820" height="390" fill="#F7EEE3"/><g font-family="Georgia,serif" font-size="16" fill="#231F1A"><text x="65" y="25">Input/output cosine · closer to 1 means less directional change</text><rect x="99.839" y="50" width="92.903" height="240" fill="#A7C2A0" fill-opacity=".35"/><text x="146.290" y="365" text-anchor="middle">Tested batch: 2–5</text><path d="M65 290 H785" stroke="#D9CDBB"/><text x="52" y="295" text-anchor="end">0</text><path d="M65 230.0 H785" stroke="#D9CDBB"/><text x="52" y="235.0" text-anchor="end">0.25</text><path d="M65 170.0 H785" stroke="#D9CDBB"/><text x="52" y="175.0" text-anchor="end">0.5</text><path d="M65 110.0 H785" stroke="#D9CDBB"/><text x="52" y="115.0" text-anchor="end">0.75</text><path d="M65 50 H785" stroke="#D9CDBB"/><text x="52" y="55" text-anchor="end">1</text><text x="65.0" y="316" text-anchor="middle">0</text><text x="111.45161290322581" y="316" text-anchor="middle">2</text><text x="181.1290322580645" y="316" text-anchor="middle">5</text><text x="297.258064516129" y="316" text-anchor="middle">10</text><text x="413.38709677419354" y="316" text-anchor="middle">15</text><text x="529.516129032258" y="316" text-anchor="middle">20</text><text x="645.6451612903226" y="316" text-anchor="middle">25</text><text x="785.0" y="316" text-anchor="middle">31</text><text x="425" y="342" text-anchor="middle">Original transformer block · zero-based index</text><polyline fill="none" stroke="#746B5D" stroke-width="2" stroke-dasharray="7 4" points="65.000,264.773 88.226,50.475 111.452,50.403 134.677,50.694 157.903,50.723 181.129,51.001 204.355,51.272 227.581,51.806 250.806,52.443 274.032,52.525 297.258,52.544 320.484,52.770 343.710,53.073 366.935,53.037 390.161,53.593 413.387,53.461 436.613,53.501 459.839,52.627 483.065,52.688 506.290,52.588 529.516,51.568 552.742,51.038 575.968,50.965 599.194,50.748 622.419,50.957 645.645,50.981 668.871,51.261 692.097,52.056 715.323,54.058 738.548,63.688 761.774,96.850 785.000,158.699"/><circle cx="65.000" cy="264.773" r="2.8" fill="#746B5D"><title>Block 0, early: 0.105112484</title></circle><circle cx="88.226" cy="50.475" r="2.8" fill="#746B5D"><title>Block 1, early: 0.998018857</title></circle><circle cx="111.452" cy="50.403" r="2.8" fill="#746B5D"><title>Block 2, early: 0.998321053</title></circle><circle cx="134.677" cy="50.694" r="2.8" fill="#746B5D"><title>Block 3, early: 0.997110114</title></circle><circle cx="157.903" cy="50.723" r="2.8" fill="#746B5D"><title>Block 4, early: 0.996988797</title></circle><circle cx="181.129" cy="51.001" r="2.8" fill="#746B5D"><title>Block 5, early: 0.995830303</title></circle><circle cx="204.355" cy="51.272" r="2.8" fill="#746B5D"><title>Block 6, early: 0.994698498</title></circle><circle cx="227.581" cy="51.806" r="2.8" fill="#746B5D"><title>Block 7, early: 0.992475868</title></circle><circle cx="250.806" cy="52.443" r="2.8" fill="#746B5D"><title>Block 8, early: 0.989818914</title></circle><circle cx="274.032" cy="52.525" r="2.8" fill="#746B5D"><title>Block 9, early: 0.989477508</title></circle><circle cx="297.258" cy="52.544" r="2.8" fill="#746B5D"><title>Block 10, early: 0.989399264</title></circle><circle cx="320.484" cy="52.770" r="2.8" fill="#746B5D"><title>Block 11, early: 0.988458251</title></circle><circle cx="343.710" cy="53.073" r="2.8" fill="#746B5D"><title>Block 12, early: 0.987194994</title></circle><circle cx="366.935" cy="53.037" r="2.8" fill="#746B5D"><title>Block 13, early: 0.987347081</title></circle><circle cx="390.161" cy="53.593" r="2.8" fill="#746B5D"><title>Block 14, early: 0.985030483</title></circle><circle cx="413.387" cy="53.461" r="2.8" fill="#746B5D"><title>Block 15, early: 0.985579806</title></circle><circle cx="436.613" cy="53.501" r="2.8" fill="#746B5D"><title>Block 16, early: 0.985414229</title></circle><circle cx="459.839" cy="52.627" r="2.8" fill="#746B5D"><title>Block 17, early: 0.989053327</title></circle><circle cx="483.065" cy="52.688" r="2.8" fill="#746B5D"><title>Block 18, early: 0.988799985</title></circle><circle cx="506.290" cy="52.588" r="2.8" fill="#746B5D"><title>Block 19, early: 0.989215839</title></circle><circle cx="529.516" cy="51.568" r="2.8" fill="#746B5D"><title>Block 20, early: 0.993465748</title></circle><circle cx="552.742" cy="51.038" r="2.8" fill="#746B5D"><title>Block 21, early: 0.995675921</title></circle><circle cx="575.968" cy="50.965" r="2.8" fill="#746B5D"><title>Block 22, early: 0.995977210</title></circle><circle cx="599.194" cy="50.748" r="2.8" fill="#746B5D"><title>Block 23, early: 0.996883269</title></circle><circle cx="622.419" cy="50.957" r="2.8" fill="#746B5D"><title>Block 24, early: 0.996010941</title></circle><circle cx="645.645" cy="50.981" r="2.8" fill="#746B5D"><title>Block 25, early: 0.995913832</title></circle><circle cx="668.871" cy="51.261" r="2.8" fill="#746B5D"><title>Block 26, early: 0.994745070</title></circle><circle cx="692.097" cy="52.056" r="2.8" fill="#746B5D"><title>Block 27, early: 0.991433965</title></circle><circle cx="715.323" cy="54.058" r="2.8" fill="#746B5D"><title>Block 28, early: 0.983093548</title></circle><circle cx="738.548" cy="63.688" r="2.8" fill="#746B5D"><title>Block 29, early: 0.942966455</title></circle><circle cx="761.774" cy="96.850" r="2.8" fill="#746B5D"><title>Block 30, early: 0.804790441</title></circle><circle cx="785.000" cy="158.699" r="2.8" fill="#746B5D"><title>Block 31, early: 0.547085853</title></circle><polyline fill="none" stroke="#8B6330" stroke-width="2" stroke-dasharray="2 4" points="65.000,173.024 88.226,50.449 111.452,50.337 134.677,50.442 157.903,50.653 181.129,50.921 204.355,51.237 227.581,52.101 250.806,52.711 274.032,52.737 297.258,52.861 320.484,53.233 343.710,53.526 366.935,54.273 390.161,55.173 413.387,55.424 436.613,55.262 459.839,55.208 483.065,55.012 506.290,54.161 529.516,52.618 552.742,52.026 575.968,51.673 599.194,51.551 622.419,52.048 645.645,52.277 668.871,51.725 692.097,55.341 715.323,53.711 738.548,56.344 761.774,61.728 785.000,94.078"/><circle cx="65.000" cy="173.024" r="2.8" fill="#8B6330"><title>Block 0, middle: 0.487400779</title></circle><circle cx="88.226" cy="50.449" r="2.8" fill="#8B6330"><title>Block 1, middle: 0.998128396</title></circle><circle cx="111.452" cy="50.337" r="2.8" fill="#8B6330"><title>Block 2, middle: 0.998597430</title></circle><circle cx="134.677" cy="50.442" r="2.8" fill="#8B6330"><title>Block 3, middle: 0.998159206</title></circle><circle cx="157.903" cy="50.653" r="2.8" fill="#8B6330"><title>Block 4, middle: 0.997280698</title></circle><circle cx="181.129" cy="50.921" r="2.8" fill="#8B6330"><title>Block 5, middle: 0.996160534</title></circle><circle cx="204.355" cy="51.237" r="2.8" fill="#8B6330"><title>Block 6, middle: 0.994844232</title></circle><circle cx="227.581" cy="52.101" r="2.8" fill="#8B6330"><title>Block 7, middle: 0.991245855</title></circle><circle cx="250.806" cy="52.711" r="2.8" fill="#8B6330"><title>Block 8, middle: 0.988703436</title></circle><circle cx="274.032" cy="52.737" r="2.8" fill="#8B6330"><title>Block 9, middle: 0.988596248</title></circle><circle cx="297.258" cy="52.861" r="2.8" fill="#8B6330"><title>Block 10, middle: 0.988079412</title></circle><circle cx="320.484" cy="53.233" r="2.8" fill="#8B6330"><title>Block 11, middle: 0.986528825</title></circle><circle cx="343.710" cy="53.526" r="2.8" fill="#8B6330"><title>Block 12, middle: 0.985307864</title></circle><circle cx="366.935" cy="54.273" r="2.8" fill="#8B6330"><title>Block 13, middle: 0.982194575</title></circle><circle cx="390.161" cy="55.173" r="2.8" fill="#8B6330"><title>Block 14, middle: 0.978447653</title></circle><circle cx="413.387" cy="55.424" r="2.8" fill="#8B6330"><title>Block 15, middle: 0.977398614</title></circle><circle cx="436.613" cy="55.262" r="2.8" fill="#8B6330"><title>Block 16, middle: 0.978074326</title></circle><circle cx="459.839" cy="55.208" r="2.8" fill="#8B6330"><title>Block 17, middle: 0.978300021</title></circle><circle cx="483.065" cy="55.012" r="2.8" fill="#8B6330"><title>Block 18, middle: 0.979115819</title></circle><circle cx="506.290" cy="54.161" r="2.8" fill="#8B6330"><title>Block 19, middle: 0.982663776</title></circle><circle cx="529.516" cy="52.618" r="2.8" fill="#8B6330"><title>Block 20, middle: 0.989092434</title></circle><circle cx="552.742" cy="52.026" r="2.8" fill="#8B6330"><title>Block 21, middle: 0.991556743</title></circle><circle cx="575.968" cy="51.673" r="2.8" fill="#8B6330"><title>Block 22, middle: 0.993030677</title></circle><circle cx="599.194" cy="51.551" r="2.8" fill="#8B6330"><title>Block 23, middle: 0.993537910</title></circle><circle cx="622.419" cy="52.048" r="2.8" fill="#8B6330"><title>Block 24, middle: 0.991467408</title></circle><circle cx="645.645" cy="52.277" r="2.8" fill="#8B6330"><title>Block 25, middle: 0.990510603</title></circle><circle cx="668.871" cy="51.725" r="2.8" fill="#8B6330"><title>Block 26, middle: 0.992810509</title></circle><circle cx="692.097" cy="55.341" r="2.8" fill="#8B6330"><title>Block 27, middle: 0.977745532</title></circle><circle cx="715.323" cy="53.711" r="2.8" fill="#8B6330"><title>Block 28, middle: 0.984537555</title></circle><circle cx="738.548" cy="56.344" r="2.8" fill="#8B6330"><title>Block 29, middle: 0.973565034</title></circle><circle cx="761.774" cy="61.728" r="2.8" fill="#8B6330"><title>Block 30, middle: 0.951135045</title></circle><circle cx="785.000" cy="94.078" r="2.8" fill="#8B6330"><title>Block 31, middle: 0.816343394</title></circle><polyline fill="none" stroke="#46643F" stroke-width="2" stroke-dasharray="none" points="65.000,118.027 88.226,50.953 111.452,50.576 134.677,50.517 157.903,50.635 181.129,50.828 204.355,51.311 227.581,51.984 250.806,52.376 274.032,51.850 297.258,51.548 320.484,51.798 343.710,52.032 366.935,52.420 390.161,53.661 413.387,54.266 436.613,54.319 459.839,55.806 483.065,54.862 506.290,53.894 529.516,53.696 552.742,54.451 575.968,54.853 599.194,54.788 622.419,55.116 645.645,54.642 668.871,56.234 692.097,55.859 715.323,58.043 738.548,59.294 761.774,65.599 785.000,100.700"/><circle cx="65.000" cy="118.027" r="2.8" fill="#46643F"><title>Block 0, final: 0.716554673</title></circle><circle cx="88.226" cy="50.953" r="2.8" fill="#46643F"><title>Block 1, final: 0.996027291</title></circle><circle cx="111.452" cy="50.576" r="2.8" fill="#46643F"><title>Block 2, final: 0.997599003</title></circle><circle cx="134.677" cy="50.517" r="2.8" fill="#46643F"><title>Block 3, final: 0.997846799</title></circle><circle cx="157.903" cy="50.635" r="2.8" fill="#46643F"><title>Block 4, final: 0.997352925</title></circle><circle cx="181.129" cy="50.828" r="2.8" fill="#46643F"><title>Block 5, final: 0.996551043</title></circle><circle cx="204.355" cy="51.311" r="2.8" fill="#46643F"><title>Block 6, final: 0.994539433</title></circle><circle cx="227.581" cy="51.984" r="2.8" fill="#46643F"><title>Block 7, final: 0.991732385</title></circle><circle cx="250.806" cy="52.376" r="2.8" fill="#46643F"><title>Block 8, final: 0.990098561</title></circle><circle cx="274.032" cy="51.850" r="2.8" fill="#46643F"><title>Block 9, final: 0.992292595</title></circle><circle cx="297.258" cy="51.548" r="2.8" fill="#46643F"><title>Block 10, final: 0.993551334</title></circle><circle cx="320.484" cy="51.798" r="2.8" fill="#46643F"><title>Block 11, final: 0.992510013</title></circle><circle cx="343.710" cy="52.032" r="2.8" fill="#46643F"><title>Block 12, final: 0.991533226</title></circle><circle cx="366.935" cy="52.420" r="2.8" fill="#46643F"><title>Block 13, final: 0.989917517</title></circle><circle cx="390.161" cy="53.661" r="2.8" fill="#46643F"><title>Block 14, final: 0.984747244</title></circle><circle cx="413.387" cy="54.266" r="2.8" fill="#46643F"><title>Block 15, final: 0.982225681</title></circle><circle cx="436.613" cy="54.319" r="2.8" fill="#46643F"><title>Block 16, final: 0.982003408</title></circle><circle cx="459.839" cy="55.806" r="2.8" fill="#46643F"><title>Block 17, final: 0.975807220</title></circle><circle cx="483.065" cy="54.862" r="2.8" fill="#46643F"><title>Block 18, final: 0.979742236</title></circle><circle cx="506.290" cy="53.894" r="2.8" fill="#46643F"><title>Block 19, final: 0.983774446</title></circle><circle cx="529.516" cy="53.696" r="2.8" fill="#46643F"><title>Block 20, final: 0.984599366</title></circle><circle cx="552.742" cy="54.451" r="2.8" fill="#46643F"><title>Block 21, final: 0.981455415</title></circle><circle cx="575.968" cy="54.853" r="2.8" fill="#46643F"><title>Block 22, final: 0.979778460</title></circle><circle cx="599.194" cy="54.788" r="2.8" fill="#46643F"><title>Block 23, final: 0.980049446</title></circle><circle cx="622.419" cy="55.116" r="2.8" fill="#46643F"><title>Block 24, final: 0.978684290</title></circle><circle cx="645.645" cy="54.642" r="2.8" fill="#46643F"><title>Block 25, final: 0.980660324</title></circle><circle cx="668.871" cy="56.234" r="2.8" fill="#46643F"><title>Block 26, final: 0.974025783</title></circle><circle cx="692.097" cy="55.859" r="2.8" fill="#46643F"><title>Block 27, final: 0.975587234</title></circle><circle cx="715.323" cy="58.043" r="2.8" fill="#46643F"><title>Block 28, final: 0.966486297</title></circle><circle cx="738.548" cy="59.294" r="2.8" fill="#46643F"><title>Block 29, final: 0.961274754</title></circle><circle cx="761.774" cy="65.599" r="2.8" fill="#46643F"><title>Block 30, final: 0.935006213</title></circle><circle cx="785.000" cy="100.700" r="2.8" fill="#46643F"><title>Block 31, final: 0.788749862</title></circle></g></svg>